# xmcd
#
# Track frame offsets:
#	150
#	13133
#	26744
#	41179
#	55827
#	72525
#	83533
#	99919
#	118075
#	135512
#	152285
#	167474
#	179892
#	197335
#	215097
#	227459
#	241154
#	261967
#	276731
#	290111
#	301881
#	314405
#
# Disc length: 4357 seconds
#
# Revision: 1
# Processed by: cddbd v1.4PL0 Copyright (c) Steve Scherf et al.
# Submitted via: audiograbber 1.81.02
#
DISCID=3e110316
DTITLE=Albert Ammons - His Best Recordings 1936 - 1947
DYEAR=1947
DGENRE=Blues
TTITLE0=Nagasaki
TTITLE1=Boogie Woogie Stomp
TTITLE2=Early Mornin' Blues
TTITLE3=Mile-or-mo Bird Rag
TTITLE4=Boogie Woogie
TTITLE5=Shout for Joy
TTITLE6=Boogie Woogie Stomp (Piano Solo)
TTITLE7=Chicago In Mind
TTITLE8=Suitcase Blues
TTITLE9=Boogie Woogie Blues
TTITLE10=Bass Goin' Crazy
TTITLE11=Jesse
TTITLE12=St. Louis Blues
TTITLE13=Mecca Flat Blues
TTITLE14=Sixth Avenue Express
TTITLE15=Albert's Special Boogie Woogie
TTITLE16=Bottom Blues
TTITLE17=Bedroom Blues
TTITLE18=St. Louis Blues
TTITLE19=S. P. Blues
TTITLE20=Hiroshima
TTITLE21=The Sheik of Araby
EXTD=
EXTT0=
EXTT1=
EXTT2=
EXTT3=
EXTT4=
EXTT5=
EXTT6=
EXTT7=
EXTT8=
EXTT9=
EXTT10=
EXTT11=
EXTT12=
EXTT13=
EXTT14=
EXTT15=
EXTT16=
EXTT17=
EXTT18=
EXTT19=
EXTT20=
EXTT21=
PLAYORDER=
